CATALOG 0000000000000
FILE "CU Amiga Magazine's Super CD-ROM 11 (1997)(EMAP Images)(GB)(Track 1 of 3)[!][issue 1997-06].iso" BINARY
  TRACK 01 MODE1/2048
    INDEX 01 00:00:00
FILE "CU Amiga Magazine's Super CD-ROM 11 (1997)(EMAP Images)(GB)(Track 2 of 3)[!][issue 1997-06].wav" WAVE
  TRACK 02 AUDIO
    PREGAP 00:02:00
    INDEX 01 00:00:00
FILE "CU Amiga Magazine's Super CD-ROM 11 (1997)(EMAP Images)(GB)(Track 3 of 3)[!][issue 1997-06].wav" WAVE
  TRACK 03 AUDIO
    INDEX 01 00:00:00
